# xmcd
#
# Track frame offsets: 
#        150
#        22787
#        43175
#        75665
#
# Disc length: 1262 seconds
#
# Revision: 0
# Processed by: cddbd v1.5.2PL0 Copyright (c) Steve Scherf et al.
# Submitted via: ExactAudioCopy v0.99pb4
#
DISCID=2204ec04
DTITLE=Mary J. Blige - Everything [CD 2)
DYEAR=1997
DGENRE=R&B
TTITLE0=Everything (Album Version)
TTITLE1=Everything (Full Crew Club Mix)
TTITLE2=Everything (Curtis and Moore Vocal Mix)
TTITLE3=Love Is All We Need (Remix feat. Foxy Brown)
EXTD=
EXTT0=
EXTT1=
EXTT2=
EXTT3=
PLAYORDER=
